# xmcd
#
# Track frame offsets:
#	150
#	18638
#	31921
#	45242
#	58189
#	71058
#	85593
#	102228
#	116297
#	130509
#	142745
#	155855
#	169572
#	183758
#	193826
#	210718
#	225701
#	239047
#
# Disc length: 3369 seconds
#
# Revision: 0
# Processed by: cddbd v1.5.2PL0 Copyright (c) Steve Scherf et al.
# Submitted via: EasyCDDAExtractor 16.0.6.1
#
DISCID=ee0d2712
DTITLE=Συλλογικός δίσκος - Ρεμπέτικοι καϋμοί
DYEAR=1995
DGENRE=Ρεμπέτικη
TTITLE0=Καζαντζίδης Στέλιος - Γιατί με ξύπνησες πρωΐ [Βασίλης Τσιτσάνης]
TTITLE1=Μπέλλου Σωτηρία - Άνοιξε, άνοιξε [Ι. Παπαϊωάννου]
TTITLE2=Γκολές Μπάμπης - Μεσάνυχτα βαθειά σκοτεινιασμένα [Γιώργος Λαύκας-Χρ. Κ
TTITLE2=ολοκοτρώνης]
TTITLE3=Λαμπράκη Χαρούλα - Μικρός αρραβωνιάστηκα [Μάρκος Βαμβακάρης]
TTITLE4=Γκόγκος Δημήτρης ή Μπαγιαντέρας - Χατζηκυριάκειο [Δημήτρης Γκόγκος ή Μ
TTITLE4=παγιαντέρας]
TTITLE5=Πουλόπουλος Γιάννης - Ζούσα μοναχός χωρίς αγάπη [Δημήτρης Γκόγκος ή Μπ
TTITLE5=αγιαντέρας]
TTITLE6=Μπέλλου Σωτηρία - Σαν απόκληρος γυρίζω [Βασίλης Τσιτσάνης]
TTITLE7=Ιακωβίδης Αγάθωνας - Πίνω και μεθώ (Ωχ αμάν) [Σπύρος Περιστέρης]
TTITLE8=Γλυκερία - Γυφτοπούλα [Γιώργος Μπάτης]
TTITLE9=Κυριαζής Γιάννης - Εγώ θέλω πριγκηπέσσα [Γιάννης Κυριαζής]
TTITLE10=Μπέλλου Σωτηρία - Κάτω στα Λεμονάδικα [Βαγγέλης Παπάζογλου]
TTITLE11=Καπλάνης Κώστας - Όμορφη Πειραιώτισσα [Κώστας Καπλάνης-Δημ. Γκόγκος Μ
TTITLE11=παγιαντέρας]
TTITLE12=Γλυκερία - Μού 'φαγες τα δαχτυλίδια [Γιώργος Μητσάκης]
TTITLE13=Μητσάκης Γιώργος - Γκρεμίζουν την Αθήνα την παλιά [Γιώργος Μητσάκης]
TTITLE14=Καζαντζίδης Στέλιος - Καρδιά παραπονιάρα [Απόστολος Χατζηχρήστος-Γιάν
TTITLE14=νης Λεκάκης]
TTITLE15=Χατζηαντωνίου Γιώργος - Η άτακτη [Μάρκος Βαμβακάρης]
TTITLE16=Λαπράκη Χαρούλα - Το μεράκι της καρδιάς μου [Γιώργος Μητσάκης]
TTITLE17=Ιακωβίδης Αγάθωνας - Βρε μάγκα το παράκανες [Μανώλης Χιώτης]
EXTD=
EXTT0=
EXTT1=
EXTT2=
EXTT3=
EXTT4=
EXTT5=
EXTT6=
EXTT7=
EXTT8=
EXTT9=
EXTT10=
EXTT11=
EXTT12=
EXTT13=
EXTT14=
EXTT15=
EXTT16=
EXTT17=
PLAYORDER=
